<?xml version="1.0" standalone="no"?>
<!DOCTYPE svg PUBLIC "-//W3C//DTD SVG 20010904//EN"
 "http://www.w3.org/TR/2001/REC-SVG-20010904/DTD/svg10.dtd">
<svg version="1.0" xmlns="http://www.w3.org/2000/svg"
 width="260.000000pt" height="260.000000pt" viewBox="0 0 260.000000 260.000000"
 preserveAspectRatio="xMidYMid meet">
<metadata>
Created by potrace 1.14, written by Peter Selinger 2001-2017
</metadata>
<g transform="translate(0.000000,260.000000) scale(0.100000,-0.100000)"
fill="#000000" stroke="none">
<path d="M0 1300 l0 -1300 1300 0 1300 0 0 1300 0 1300 -1300 0 -1300 0 0
-1300z m530 850 l0 -200 -40 0 -40 0 0 -40 0 -40 40 0 40 0 0 -40 0 -40 -80 0
-80 0 0 40 0 40 -40 0 -40 0 0 -40 0 -40 -80 0 -80 0 0 280 0 280 200 0 200 0
0 -200z m560 -80 l0 -280 -240 0 -240 0 0 280 0 280 240 0 240 0 0 -280z m480
80 l0 -200 -120 0 -120 0 0 -80 0 -80 -80 0 -80 0 0 280 0 280 200 0 200 0 0
-200z m240 0 l0 -200 80 0 80 0 0 -80 0 -80 -160 0 -160 0 0 280 0 280 80 0
80 0 0 -200z m640 120 l0 -80 -120 0 -120 0 0 -80 0 -80 120 0 120 0 0 -120 0
-120 -200 0 -200 0 0 40 0 40 120 0 120 0 0 40 0 40 -120 0 -120 0 0 200 0
200 200 0 200 0 0 -80z m-200 -1050 l0 -30 -980 0 -980 0 0 30 0 30 980 0 980
0 0 -30z m-1630 -580 l0 -160 40 0 40 0 0 160 0 160 80 0 80 0 0 -200 0 -200
-40 0 -40 0 0 -80 0 -80 -120 0 -120 0 0 80 0 80 -40 0 -40 0 0 200 0 200 80
0 80 0 0 -160z m720 -40 l0 -200 -80 0 -80 0 0 -40 0 -40 80 0 80 0 0 -40 0
-40 -200 0 -200 0 0 40 0 40 40 0 40 0 0 80 0 80 80 0 80 0 0 80 0 80 -120 0
-120 0 0 80 0 80 200 0 200 0 0 -200z m720 -80 l0 -280 -200 0 -200 0 0 280 0
280 200 0 200 0 0 -280z m-480 -200 l0 -80 -80 0 -80 0 0 80 0 80 80 0 80 0 0
-80z"/>
<path d="M290 2150 l0 -120 40 0 40 0 0 120 0 120 -40 0 -40 0 0 -120z"/>
<path d="M850 2110 l0 -160 40 0 40 0 0 160 0 160 -40 0 -40 0 0 -160z"/>
<path d="M1330 2150 l0 -120 40 0 40 0 0 120 0 120 -40 0 -40 0 0 -120z"/>
<path d="M1820 520 l0 -200 40 0 40 0 0 200 0 200 -40 0 -40 0 0 -200z"/>
</g>
</svg>
